<svg xmlns="http://www.w3.org/2000/svg" xml:space="preserve" viewBox="0 0 64 64">
  <path d="M38 23h2v5h-2zm4 0h2v5h-2zm-4 7h2v2h-2zm4 0h2v2h-2zm-11 4h2v2h-2zm-5 20h2v2h-2zm16-20h2v2h-2zm-4 4h2v2h-2zm4 0h2v2h-2zM2 2h3V0H1a1 1 0 0 0-1 1v4h2V2zm61-2h-4v2h3v3h2V1a1 1 0 0 0-1-1zM2 59H0v4a1 1 0 0 0 1 1h4v-2H2v-3zm60 3h-3v2h4a1 1 0 0 0 1-1v-4h-2v3zM4 5v12a1 1 0 0 0 1 1h12a1 1 0 0 0 1-1V5a1 1 0 0 0-1-1H5a1 1 0 0 0-1 1zm2 1h10v10H6V6z"/>
  <path d="M13 8H9a1 1 0 0 0-1 1v4a1 1 0 0 0 1 1h4a1 1 0 0 0 1-1V9a1 1 0 0 0-1-1zm-1 4h-2v-2h2v2zm35 6h12a1 1 0 0 0 1-1V5a1 1 0 0 0-1-1H47a1 1 0 0 0-1 1v12a1 1 0 0 0 1 1zm1-12h10v10H48V6z"/>
  <path d="M55 8h-4a1 1 0 0 0-1 1v4a1 1 0 0 0 1 1h4a1 1 0 0 0 1-1V9a1 1 0 0 0-1-1zm-1 4h-2v-2h2v2zM17 46H5a1 1 0 0 0-1 1v12a1 1 0 0 0 1 1h12a1 1 0 0 0 1-1V47a1 1 0 0 0-1-1zm-1 12H6V48h10v10z"/>
  <path d="M9 56h4a1 1 0 0 0 1-1v-4a1 1 0 0 0-1-1H9a1 1 0 0 0-1 1v4a1 1 0 0 0 1 1zm1-4h2v2h-2v-2zm34-33h-7V7h-2v13a1 1 0 0 0 1 1h8v-2zm-22-7h7v2h-7zm4-4h7v2h-7zM4 19h2v9H4zm14 6H8v2h9v4h2v-5a1 1 0 0 0-1-1zm-9-5h2v2H9zm12-2h2v8h-2zm0 10h9v2h-9zm40 1h-2v10h-3v2h4a1 1 0 0 0 1-1V29zM26 18h2v2h-2zM4 33h2v8H4zm0 9h9v2H4zm46-14h2v-4a1 1 0 0 0-1-1h-5v2h4v3zM9 33h2v2H9zm11-1h2v8h-2zm0 10h9v2h-9zM8 38h9v2H8zm13 14h2v4h-2zm-1-4h9v2h-9zm16-4v-5a1 1 0 0 0-1-1H25v2h9v4h2zM26 32h2v2h-2zm-11 2h2v2h-2zm44 19h2v7h-2zm-5 5h3v2h-3zm0-6h2v4h-2zm7-8a1 1 0 0 0-1-1H49v2h10v6h2v-7zM48 56v-5a1 1 0 0 0-1-1H36v2h10v4h2z"/>
  <path d="M50 47h7v2h-7zM20 58h7v2h-7zm10-7h2v9h-2zm2-5h4v2h-4zm15-10h5v-2h-4v-6h-2v7a1 1 0 0 0 1 1z"/>
  <path d="M50 30h5v2h-5zm4-10h3v2h-3zm5 0h2v5h-2zm-5 5h2v2h-2zm-15-8h4a1 1 0 0 0 1-1V3h-2v12h-3v2zM24 5h15V3H23a1 1 0 0 0-1 1v5h2V5zm1 19h7a1 1 0 0 0 1-1v-8h-2v7h-6v2zm9-1h2v4h-2zm2 31h7v2h-7zm0 4h9v2h-9zm14 0h-2v2h3a1 1 0 0 0 1-1v-8h-2v7zM16 42h2v2h-2zm23 0h4v2h-4zm7-4h2v3h-2zm-1 5h2v2h-2zm-6 3h3v2h-3zm11-8h2v2h-2zm4-4h3v2h-3zm-19 0h5v2h-5zm-1-5h2v3h-2z"/>
</svg>